<?xml version="1.0" standalone="no"?>
<!DOCTYPE svg PUBLIC "-//W3C//DTD SVG 20010904//EN"
 "http://www.w3.org/TR/2001/REC-SVG-20010904/DTD/svg10.dtd">
<svg version="1.0" xmlns="http://www.w3.org/2000/svg"
 width="176.000000pt" height="176.000000pt" viewBox="0 0 176.000000 176.000000"
 preserveAspectRatio="xMidYMid meet">
<metadata>
Created by potrace 1.14, written by Peter Selinger 2001-2017
</metadata>
<g transform="translate(0.000000,176.000000) scale(0.100000,-0.100000)"
fill="#000000" stroke="none">
<path d="M0 880 l0 -880 880 0 880 0 0 880 0 880 -880 0 -880 0 0 -880z m839
619 c76 -38 166 -124 209 -199 18 -30 32 -58 32 -62 0 -5 -27 -8 -59 -8 -50 0
-61 3 -66 19 -7 24 -102 127 -110 119 -3 -3 39 -122 93 -264 81 -213 103 -260
120 -262 18 -3 19 -6 9 -32 -8 -20 -8 -33 -1 -40 6 -6 64 132 169 406 87 228
162 417 165 419 8 5 221 -983 220 -1023 l0 -33 -47 3 -48 3 -74 342 c-41 188
-77 340 -81 338 -3 -2 -71 -170 -150 -374 -80 -204 -147 -367 -151 -363 -3 4
-23 51 -43 105 l-38 97 -51 -46 c-215 -193 -549 -152 -722 90 -152 214 -119
512 76 691 101 92 209 130 355 123 l84 -3 6 30 7 30 17 -37 c13 -30 30 -44 79
-69z m600 -1064 c-7 -6 -1050 -7 -1057 0 -3 3 235 5 528 5 293 0 531 -2 529
-5z m-979 -85 c0 -5 -9 -6 -20 -3 -16 4 -20 0 -20 -17 0 -17 4 -21 20 -17 23
6 27 -8 5 -17 -14 -5 -45 18 -45 34 0 16 31 39 45 34 8 -4 15 -10 15 -14z
m120 -20 c0 -25 -30 -41 -53 -29 -39 22 -4 79 35 58 10 -5 18 -18 18 -29z
m377 28 c15 -25 14 -56 -3 -62 -22 -8 -44 11 -44 39 0 31 32 46 47 23z m-273
-13 c8 -22 -2 -42 -24 -48 -24 -6 -30 0 -30 35 0 23 4 28 24 28 13 0 26 -7 30
-15z m63 -32 c-3 -10 -5 -2 -5 17 0 19 2 27 5 18 2 -10 2 -26 0 -35z m67 20
c-10 -40 -14 -41 -14 -5 0 18 5 32 10 32 6 0 8 -11 4 -27z m46 -3 c0 -32 -9
-37 -28 -18 -15 15 -16 32 -2 23 6 -3 10 1 10 9 0 9 5 16 10 16 6 0 10 -13 10
-30z m259 18 c0 -7 -4 -22 -9 -33 -7 -17 -9 -15 -9 13 -1 17 4 32 9 32 6 0 10
-6 9 -12z m51 -18 c0 -16 -4 -30 -9 -30 -12 0 -24 37 -16 50 12 20 25 10 25
-20z m76 14 c-3 -8 -2 -12 4 -9 6 3 10 4 10 1 0 -2 2 -10 5 -18 4 -9 -4 -13
-25 -13 -16 0 -30 1 -30 2 0 1 5 14 12 28 12 27 34 36 24 9z m88 -11 c-10 -40
-14 -41 -14 -5 0 18 5 32 10 32 6 0 8 -11 4 -27z m38 -8 c-3 -20 -7 -23 -18
-14 -16 13 -19 33 -4 24 6 -3 10 1 10 10 0 9 4 14 9 11 4 -3 6 -17 3 -31z
m-232 -16 c0 -5 -4 -9 -10 -9 -5 0 -10 7 -10 16 0 8 5 12 10 9 6 -3 10 -10 10
-16z m27 -76 c-152 -2 -402 -2 -555 0 -152 1 -27 2 278 2 305 0 430 -1 277 -2z"/>
<path d="M477 1416 c-270 -111 -341 -457 -136 -667 47 -48 172 -119 186 -105
8 7 172 751 173 779 0 28 -147 24 -223 -7z"/>
<path d="M770 1240 c0 -3 -29 -141 -65 -305 -36 -165 -65 -302 -65 -304 0 -7
74 11 127 31 53 20 173 118 173 142 0 11 -169 446 -170 436z"/>
<path d="M530 330 c0 -11 7 -20 15 -20 8 0 15 9 15 20 0 11 -7 20 -15 20 -8 0
-15 -9 -15 -20z"/>
<path d="M920 330 c0 -14 7 -20 23 -20 18 0 19 2 7 10 -13 9 -13 11 0 20 12 8
11 10 -7 10 -16 0 -23 -6 -23 -20z"/>
<path d="M640 325 c0 -18 4 -23 15 -19 8 4 15 15 15 25 0 10 -7 19 -15 19 -9
0 -15 -9 -15 -25z"/>
</g>
</svg>
